<svg width="20" height="20" viewBox="0 0 20 20" fill="none" xmlns="http://www.w3.org/2000/svg">
<path fill-rule="evenodd" clip-rule="evenodd" d="M3 2H17C17.5523 2 18 2.44771 18 3V17C18 17.5523 17.5523 18 17 18H3C2.44772 18 2 17.5523 2 17V3C2 2.44772 2.44771 2 3 2ZM0 3C0 1.34315 1.34315 0 3 0H17C18.6569 0 20 1.34315 20 3V17C20 18.6569 18.6569 20 17 20H3C1.34315 20 0 18.6569 0 17V3Z" fill="#171717"/>
<path fill-rule="evenodd" clip-rule="evenodd" d="M10 10C7.23858 10 5 7.31371 5 4H7C7 6.56606 8.6691 8 10 8C11.3309 8 13 6.56606 13 4H15C15 7.31371 12.7614 10 10 10Z" fill="#171717"/>
</svg>
