<svg width="21" height="20" viewBox="0 0 21 20" fill="none" xmlns="http://www.w3.org/2000/svg">
<path d="M19.7427 10.3165L10.7427 0.3165C10.3637 -0.1055 9.63574 -0.1055 9.25674 0.3165L0.256738 10.3165C0.127429 10.4602 0.042526 10.6382 0.0123019 10.8291C-0.0179222 11.02 0.00782824 11.2156 0.0864374 11.3922C0.165047 11.5688 0.293145 11.7188 0.455233 11.8241C0.617321 11.9294 0.806451 11.9854 0.999738 11.9855H2.99974V18.9855C2.99974 19.2507 3.1051 19.5051 3.29263 19.6926C3.48017 19.8801 3.73452 19.9855 3.99974 19.9855H15.9997C16.265 19.9855 16.5193 19.8801 16.7068 19.6926C16.8944 19.5051 16.9997 19.2507 16.9997 18.9855V11.9855H18.9997C19.1934 11.9863 19.3831 11.9308 19.5458 11.8256C19.7084 11.7205 19.837 11.5703 19.9157 11.3934C19.9945 11.2165 20.0201 11.0204 19.9894 10.8292C19.9586 10.638 19.873 10.4599 19.7427 10.3165ZM9.99974 13.9855C9.20409 13.9855 8.44103 13.6694 7.87842 13.1068C7.31581 12.5442 6.99974 11.7811 6.99974 10.9855C6.99974 10.1899 7.31581 9.42679 7.87842 8.86418C8.44103 8.30157 9.20409 7.9855 9.99974 7.9855C10.7954 7.9855 11.5584 8.30157 12.1211 8.86418C12.6837 9.42679 12.9997 10.1899 12.9997 10.9855C12.9997 11.7811 12.6837 12.5442 12.1211 13.1068C11.5584 13.6694 10.7954 13.9855 9.99974 13.9855Z" fill="white"/>
</svg>
