<svg width="20" height="14" viewBox="0 0 20 14" fill="none" xmlns="http://www.w3.org/2000/svg">
<path d="M0 0.99519C0 0.44556 0.44556 0 0.99519 0H9.0048C9.5544 0 10 0.44556 10 0.99519C10 1.54482 9.5544 1.99039 9.0048 1.99039H0.99519C0.44556 1.99039 0 1.54482 0 0.99519Z" fill="#171717"/>
<path d="M0 6.9998C0 6.4501 0.44556 6.0046 0.99519 6.0046H19.0048C19.5544 6.0046 20 6.4501 20 6.9998C20 7.5494 19.5544 7.9949 19.0048 7.9949H0.99519C0.44556 7.9949 0 7.5494 0 6.9998Z" fill="#171717"/>
<path d="M0 13.0048C0 12.4552 0.44556 12.0096 0.99519 12.0096H13.0048C13.5544 12.0096 14 12.4552 14 13.0048C14 13.5544 13.5544 14 13.0048 14H0.99519C0.44556 14 0 13.5544 0 13.0048Z" fill="#171717"/>
</svg>
